<svg xmlns="http://www.w3.org/2000/svg"  viewBox="0 0 64 64" width="64px" height="64px" baseProfile="basic"><circle cx="32" cy="32" r="23" fill="#37d0ee"/><ellipse cx="32" cy="61" opacity=".3" rx="19" ry="3"/><path fill="#fff" d="M32,14c2.577,0,4.674-1.957,4.946-4.461C35.352,9.19,33.699,9,32,9	C19.297,9,9,19.297,9,32c0,1.699,0.19,3.352,0.539,4.946C12.044,36.674,14,34.577,14,32C14,22.075,22.075,14,32,14z" opacity=".3"/><path fill="none" stroke="#fff" stroke-linecap="round" stroke-linejoin="round" stroke-miterlimit="10" stroke-width="3" d="M15.047,23.427c1.878-3.699,4.932-6.705,8.666-8.522"/><path d="M54.461,27.054C51.956,27.326,50,29.423,50,32c0,9.925-8.075,18-18,18	c-2.577,0-4.674,1.957-4.946,4.461C28.648,54.81,30.301,55,32,55c12.703,0,23-10.297,23-23C55,30.301,54.81,28.648,54.461,27.054z" opacity=".15"/><path fill="#fff" d="M27.669,40.267l-5.743-5.739c-0.978-0.978-0.978-2.564,0-3.541l0,0c0.978-0.977,2.563-0.977,3.541,0	l3.859,3.856l9.104-10.31c0.915-1.036,2.497-1.135,3.534-0.221l0.001,0.001c1.037,0.915,1.136,2.497,0.221,3.534L31.318,40.153	C30.362,41.236,28.691,41.288,27.669,40.267z"/></svg>